REM DIRINDEX 1\6,1\2\7,1\2\8,1\2\9,1\3\10,1\3\11,1\4\12,1\4\13,1\4\14,1\5\15,1\5\16,1\5\17
REM DIRNAME folder01,folder02,folder03,folder04,folder05,folder06,folder07,folder08,folder09,folder10,folder11,folder12,folder13,folder14,folder15,folder16,folder17
TITLE ""
FILE "3Q_k_061-072.mp3" MP3
  TRACK 01 AUDIO
    TITLE "15:cjc041_1444"
    INDEX 01 00:00:00
  TRACK 02 AUDIO
    TITLE "0:"
    INDEX 01 00:01:44
  TRACK 03 AUDIO
    TITLE "16:cjc041_1445"
    INDEX 01 00:02:26
  TRACK 04 AUDIO
    TITLE "0:"
    INDEX 01 00:04:25
  TRACK 05 AUDIO
    TITLE "17:cjc041_1446"
    INDEX 01 00:05:05
  TRACK 06 AUDIO
    TITLE "17:cjc041_1447"
    INDEX 01 00:06:45
  TRACK 07 AUDIO
    TITLE "0:"
    INDEX 01 00:08:46
  TRACK 08 AUDIO
    TITLE "15:cjc041_1448"
    INDEX 01 00:09:32
  TRACK 09 AUDIO
    TITLE "0:"
    INDEX 01 00:11:01
  TRACK 10 AUDIO
    TITLE "16:cjc041_1449"
    INDEX 01 00:11:64
  TRACK 11 AUDIO
    TITLE "0:"
    INDEX 01 00:15:11
  TRACK 12 AUDIO
    TITLE "17:cjc041_1450"
    INDEX 01 00:15:58
  TRACK 13 AUDIO
    TITLE "17:cjc041_1451"
    INDEX 01 00:18:31
  TRACK 14 AUDIO
    TITLE "0:"
    INDEX 01 00:19:56
  TRACK 15 AUDIO
    TITLE "15:cjc041_1452"
    INDEX 01 00:20:41
  TRACK 16 AUDIO
    TITLE "0:"
    INDEX 01 00:22:03
  TRACK 17 AUDIO
    TITLE "16:cjc041_1453"
    INDEX 01 00:22:60
  TRACK 18 AUDIO
    TITLE "0:"
    INDEX 01 00:24:74
  TRACK 19 AUDIO
    TITLE "17:cjc041_1454"
    INDEX 01 00:25:54
  TRACK 20 AUDIO
    TITLE "17:cjc041_1455"
    INDEX 01 00:27:65
  TRACK 21 AUDIO
    TITLE "0:"
    INDEX 01 00:29:21
  TRACK 22 AUDIO
    TITLE "15:cjc041_1456"
    INDEX 01 00:30:03
  TRACK 23 AUDIO
    TITLE "0:"
    INDEX 01 00:31:29
  TRACK 24 AUDIO
    TITLE "16:cjc041_1457"
    INDEX 01 00:32:09
  TRACK 25 AUDIO
    TITLE "0:"
    INDEX 01 00:34:71
  TRACK 26 AUDIO
    TITLE "17:cjc041_1458"
    INDEX 01 00:35:53
  TRACK 27 AUDIO
    TITLE "17:cjc041_1459"
    INDEX 01 00:37:67
  TRACK 28 AUDIO
    TITLE "0:"
    INDEX 01 00:39:19
  TRACK 29 AUDIO
    TITLE "15:cjc041_1460"
    INDEX 01 00:39:74
  TRACK 30 AUDIO
    TITLE "0:"
    INDEX 01 00:41:38
  TRACK 31 AUDIO
    TITLE "16:cjc041_1461"
    INDEX 01 00:42:25
  TRACK 32 AUDIO
    TITLE "0:"
    INDEX 01 00:44:18
  TRACK 33 AUDIO
    TITLE "17:cjc041_1462"
    INDEX 01 00:44:73
  TRACK 34 AUDIO
    TITLE "17:cjc041_1463"
    INDEX 01 00:47:28
  TRACK 35 AUDIO
    TITLE "0:"
    INDEX 01 00:49:00
  TRACK 36 AUDIO
    TITLE "15:cjc041_1464"
    INDEX 01 00:49:61
  TRACK 37 AUDIO
    TITLE "0:"
    INDEX 01 00:51:26
  TRACK 38 AUDIO
    TITLE "16:cjc041_1465"
    INDEX 01 00:52:06
  TRACK 39 AUDIO
    TITLE "0:"
    INDEX 01 00:53:70
  TRACK 40 AUDIO
    TITLE "17:cjc041_1466"
    INDEX 01 00:54:50
  TRACK 41 AUDIO
    TITLE "17:cjc041_1467"
    INDEX 01 00:57:56
  TRACK 42 AUDIO
    TITLE "0:"
    INDEX 01 01:00:45
  TRACK 43 AUDIO
    TITLE "15:cjc041_1468"
    INDEX 01 01:01:25
  TRACK 44 AUDIO
    TITLE "0:"
    INDEX 01 01:02:71
  TRACK 45 AUDIO
    TITLE "16:cjc041_1469"
    INDEX 01 01:03:53
  TRACK 46 AUDIO
    TITLE "0:"
    INDEX 01 01:05:03
  TRACK 47 AUDIO
    TITLE "17:cjc041_1470"
    INDEX 01 01:05:64
  TRACK 48 AUDIO
    TITLE "17:cjc041_1471"
    INDEX 01 01:07:33
  TRACK 49 AUDIO
    TITLE "0:"
    INDEX 01 01:08:58
  TRACK 50 AUDIO
    TITLE "15:cjc041_1472"
    INDEX 01 01:09:40
  TRACK 51 AUDIO
    TITLE "0:"
    INDEX 01 01:11:07
  TRACK 52 AUDIO
    TITLE "16:cjc041_1473"
    INDEX 01 01:11:64
  TRACK 53 AUDIO
    TITLE "0:"
    INDEX 01 01:13:28
  TRACK 54 AUDIO
    TITLE "17:cjc041_1474"
    INDEX 01 01:14:14
  TRACK 55 AUDIO
    TITLE "17:cjc041_1475"
    INDEX 01 01:17:24
  TRACK 56 AUDIO
    TITLE "0:"
    INDEX 01 01:18:64
  TRACK 57 AUDIO
    TITLE "15:cjc041_1476"
    INDEX 01 01:19:48
  TRACK 58 AUDIO
    TITLE "0:"
    INDEX 01 01:21:04
  TRACK 59 AUDIO
    TITLE "16:cjc041_1477"
    INDEX 01 01:21:67
  TRACK 60 AUDIO
    TITLE "0:"
    INDEX 01 01:23:01
  TRACK 61 AUDIO
    TITLE "17:cjc041_1478"
    INDEX 01 01:23:48
  TRACK 62 AUDIO
    TITLE "17:cjc041_1479"
    INDEX 01 01:25:58
  TRACK 63 AUDIO
    TITLE "0:"
    INDEX 01 01:27:08
  TRACK 64 AUDIO
    TITLE "15:cjc041_1480"
    INDEX 01 01:27:63
  TRACK 65 AUDIO
    TITLE "0:"
    INDEX 01 01:30:01
  TRACK 66 AUDIO
    TITLE "16:cjc041_1481"
    INDEX 01 01:30:64
  TRACK 67 AUDIO
    TITLE "0:"
    INDEX 01 01:34:08
  TRACK 68 AUDIO
    TITLE "17:cjc041_1482"
    INDEX 01 01:34:63
  TRACK 69 AUDIO
    TITLE "17:cjc041_1483"
    INDEX 01 01:38:34
  TRACK 70 AUDIO
    TITLE "0:"
    INDEX 01 01:40:42
  TRACK 71 AUDIO
    TITLE "15:cjc041_1484"
    INDEX 01 01:41:26
  TRACK 72 AUDIO
    TITLE "0:"
    INDEX 01 01:42:67
  TRACK 73 AUDIO
    TITLE "16:cjc041_1485"
    INDEX 01 01:43:47
  TRACK 74 AUDIO
    TITLE "0:"
    INDEX 01 01:45:24
  TRACK 75 AUDIO
    TITLE "17:cjc041_1486"
    INDEX 01 01:46:04
  TRACK 76 AUDIO
    TITLE "17:cjc041_1487"
    INDEX 01 01:48:40
  TRACK 77 AUDIO
    TITLE "0:"
    INDEX 01 01:50:07
  TRACK 78 AUDIO
    TITLE "15:cjc041_1488"
    INDEX 01 01:50:62
  TRACK 79 AUDIO
    TITLE "0:"
    INDEX 01 01:51:70
  TRACK 80 AUDIO
    TITLE "16:cjc041_1489"
    INDEX 01 01:52:49
  TRACK 81 AUDIO
    TITLE "0:"
    INDEX 01 01:55:34
  TRACK 82 AUDIO
    TITLE "17:cjc041_1490"
    INDEX 01 01:56:12
  TRACK 83 AUDIO
    TITLE "17:cjc041_1491"
    INDEX 01 01:58:01
  TRACK 84 AUDIO
    TITLE "0:"
    INDEX 01 01:59:06
